<svg width="37" height="20" viewBox="0 0 37 20" fill="none" xmlns="http://www.w3.org/2000/svg">
<path d="M0 0H7.424C8.91267 0 10.2853 0.193334 11.542 0.580001C12.818 0.966667 13.92 1.55633 14.848 2.349C15.776 3.14167 16.501 4.15667 17.023 5.394C17.545 6.63133 17.806 8.091 17.806 9.773C17.806 11.3777 17.5353 12.7793 16.994 13.978C16.472 15.1573 15.747 16.153 14.819 16.965C13.891 17.7577 12.789 18.357 11.513 18.763C10.237 19.1497 8.86434 19.343 7.395 19.343H0V0ZM7.221 14.819C8.903 14.819 10.1983 14.3453 11.107 13.398C12.035 12.4313 12.499 11.1843 12.499 9.657C12.499 8.88367 12.3927 8.18767 12.18 7.569C11.9673 6.931 11.6387 6.38967 11.194 5.945C10.7687 5.481 10.2273 5.12333 9.57 4.872C8.91267 4.62067 8.12967 4.495 7.221 4.495H5.133V14.819H7.221Z" fill="black"/>
<path d="M23.8661 0H29.7531L36.5971 19.343H31.0581L29.8111 15.341H23.3441L22.0681 19.343H16.7611L23.8661 0ZM28.7671 11.6L26.6211 4.495L24.3881 11.6H28.7671Z" fill="black"/>
</svg>
