<?xml version="1.0" encoding="UTF-8"?>
<!DOCTYPE svg PUBLIC "-//W3C//DTD SVG 1.1//EN" "http://www.w3.org/Graphics/SVG/1.1/DTD/svg11.dtd">
<svg xmlns="http://www.w3.org/2000/svg" version="1.1" width="288px" height="42px" style="shape-rendering:geometricPrecision; text-rendering:geometricPrecision; image-rendering:optimizeQuality; fill-rule:evenodd; clip-rule:evenodd" xmlns:xlink="http://www.w3.org/1999/xlink">
<g><path style="opacity:1" fill="#090909" d="M -0.5,-0.5 C 1.16667,-0.5 2.83333,-0.5 4.5,-0.5C 3.16667,1.5 1.5,3.16667 -0.5,4.5C -0.5,2.83333 -0.5,1.16667 -0.5,-0.5 Z"/></g>
<g><path style="opacity:0.902" fill="#000000" d="M 4.5,-0.5 C 10.5,-0.5 16.5,-0.5 22.5,-0.5C 30.9946,2.85071 35.4946,9.18405 36,18.5C 39.5146,11.0968 45.348,8.26344 53.5,10C 61.5634,12.9497 64.8968,18.783 63.5,27.5C 57.4908,27.3338 51.4908,27.5005 45.5,28C 49.3419,31.9886 53.6752,32.4886 58.5,29.5C 60.4586,30.7481 61.9586,32.4148 63,34.5C 64.2684,32.2827 65.7684,30.2827 67.5,28.5C 70.955,31.1213 74.6217,31.6213 78.5,30C 73.4998,28.4162 68.9998,25.9162 65,22.5C 63.629,13.6989 67.4624,9.36553 76.5,9.5C 80.3346,9.39005 83.8346,10.3901 87,12.5C 88.049,10.8934 89.549,10.2267 91.5,10.5C 91.5,7.83333 91.5,5.16667 91.5,2.5C 95.1667,2.5 98.8333,2.5 102.5,2.5C 102.5,5.16667 102.5,7.83333 102.5,10.5C 104.833,10.5 107.167,10.5 109.5,10.5C 109.5,13.1667 109.5,15.8333 109.5,18.5C 107.167,18.5 104.833,18.5 102.5,18.5C 102.335,22.1817 102.501,25.8484 103,29.5C 105.133,30.4177 107.3,30.5844 109.5,30C 114.167,36.8046 112.167,39.9712 103.5,39.5C 99.0419,39.8543 95.5419,38.1877 93,34.5C 91.7288,29.2461 91.2288,23.9127 91.5,18.5C 90.1667,18.5 88.8333,18.5 87.5,18.5C 87.6495,17.448 87.4828,16.448 87,15.5C 85.0055,20.0557 82.0055,20.7224 78,17.5C 77.1667,17.8333 76.3333,18.1667 75.5,18.5C 78.5795,20.2903 81.9129,21.7903 85.5,23C 88.8034,26.795 89.3034,30.9617 87,35.5C 82.0984,39.1799 76.5984,40.3466 70.5,39C 67.5424,38.7707 65.0424,37.604 63,35.5C 57.7571,39.2266 51.9238,40.3933 45.5,39C 38.4795,36.8155 34.9795,31.9822 35,24.5C 33.6644,30.5009 30.1644,34.6676 24.5,37C 16.2363,38.3699 7.90295,38.8699 -0.5,38.5C -0.5,27.1667 -0.5,15.8333 -0.5,4.5C 1.5,3.16667 3.16667,1.5 4.5,-0.5 Z M 10.5,9.5 C 21.1599,8.32781 25.3266,12.9945 23,23.5C 19.9069,27.7949 15.7403,29.4616 10.5,28.5C 10.5,22.1667 10.5,15.8333 10.5,9.5 Z M 48.5,17.5 C 50.4233,17.795 52.0899,18.6283 53.5,20C 50.8333,20.6667 48.1667,20.6667 45.5,20C 46.5707,19.1482 47.5707,18.3149 48.5,17.5 Z"/></g>
<g><path style="opacity:0.866" fill="#000000" d="M 112.5,-0.5 C 116.5,-0.5 120.5,-0.5 124.5,-0.5C 124.5,2.16667 124.5,4.83333 124.5,7.5C 120.5,7.5 116.5,7.5 112.5,7.5C 112.5,4.83333 112.5,2.16667 112.5,-0.5 Z"/></g>
<g><path style="opacity:0.91" fill="#000000" d="M 167.5,-0.5 C 171.833,-0.5 176.167,-0.5 180.5,-0.5C 184.653,11.1457 188.82,22.8123 193,34.5C 194.308,32.3586 195.808,30.3586 197.5,28.5C 201.08,30.8287 204.747,31.3287 208.5,30C 204.227,28.0213 200.06,25.8546 196,23.5C 193.91,19.8793 194.077,16.3793 196.5,13C 203.767,8.39377 211.1,8.39377 218.5,13C 217.36,15.4583 215.86,17.625 214,19.5C 211.286,17.6529 208.453,17.3196 205.5,18.5C 209.954,20.166 214.12,22.4993 218,25.5C 219.731,35.2749 215.564,39.9416 205.5,39.5C 201.412,39.4141 197.579,38.4141 194,36.5C 190.164,38.3888 185.997,39.0555 181.5,38.5C 181.917,32.6308 179.25,29.9642 173.5,30.5C 167.75,29.9642 165.083,32.6308 165.5,38.5C 157.833,38.5 150.167,38.5 142.5,38.5C 142.666,32.4908 142.499,26.4908 142,20.5C 139.224,18.8603 137.224,19.527 136,22.5C 135.501,27.8229 135.334,33.1563 135.5,38.5C 132.167,38.5 128.833,38.5 125.5,38.5C 125.5,29.1667 125.5,19.8333 125.5,10.5C 129.351,9.97086 132.851,10.6375 136,12.5C 140.667,8.75439 145.5,8.58773 150.5,12C 151.893,13.1711 152.727,14.6711 153,16.5C 153.333,23.1667 153.667,29.8333 154,36.5C 158.516,24.1413 163.016,11.8079 167.5,-0.5 Z M 173.5,11.5 C 174.708,14.9457 176.042,18.4457 177.5,22C 175.19,22.4966 172.857,22.6633 170.5,22.5C 170.894,18.6528 171.894,14.9861 173.5,11.5 Z"/></g>
<g><path style="opacity:0.947" fill="#000000" d="M 219.5,-0.5 C 223.167,-0.5 226.833,-0.5 230.5,-0.5C 230.5,2.16667 230.5,4.83333 230.5,7.5C 226.833,7.5 223.167,7.5 219.5,7.5C 219.5,4.83333 219.5,2.16667 219.5,-0.5 Z"/></g>
<g><path style="opacity:0.887" fill="#000000" d="M 239.5,9.5 C 245.605,8.65096 251.105,9.98429 256,13.5C 256.862,15.087 257.529,16.7536 258,18.5C 258.5,25.1583 258.666,31.825 258.5,38.5C 254.76,38.7592 251.094,38.4259 247.5,37.5C 241.781,40.6396 236.615,39.9729 232,35.5C 231.667,34.5 231.333,33.5 231,32.5C 230.505,34.4727 230.338,36.4727 230.5,38.5C 226.833,38.5 223.167,38.5 219.5,38.5C 219.5,29.1667 219.5,19.8333 219.5,10.5C 223.167,10.5 226.833,10.5 230.5,10.5C 230.334,16.8421 230.5,23.1754 231,29.5C 231.516,26.9664 232.683,24.7998 234.5,23C 238.619,21.1491 242.952,19.9824 247.5,19.5C 243.968,17.2708 240.301,17.2708 236.5,19.5C 234.493,17.9918 232.826,16.1584 231.5,14C 234.099,12.205 236.766,10.705 239.5,9.5 Z M 243.5,26.5 C 244.833,26.5 246.167,26.5 247.5,26.5C 248.085,29.2605 247.085,30.9272 244.5,31.5C 240.872,30.5645 240.539,28.8978 243.5,26.5 Z"/></g>
<g><path style="opacity:0.962" fill="#0a0a0a" d="M 277.5,9.5 C 279.909,11.9024 281.909,14.5691 283.5,17.5C 284.875,21.0316 285.875,24.6983 286.5,28.5C 285.804,31.955 284.804,35.2883 283.5,38.5C 282.833,38.5 282.167,38.5 281.5,38.5C 285.811,29.7324 284.644,21.7324 278,14.5C 276.259,13.2423 274.426,12.2423 272.5,11.5C 273.93,10.4625 275.597,9.79586 277.5,9.5 Z"/></g>
<g><path style="opacity:0.87" fill="#171717" d="M 277.5,9.5 C 279.216,9.62867 280.883,9.962 282.5,10.5C 283.786,13.117 285.453,15.4504 287.5,17.5C 287.5,18.5 287.5,19.5 287.5,20.5C 286.474,19.147 285.141,18.147 283.5,17.5C 281.909,14.5691 279.909,11.9024 277.5,9.5 Z"/></g>
<g><path style="opacity:0.972" fill="#000000" d="M 113.5,10.5 C 116.833,10.5 120.167,10.5 123.5,10.5C 123.5,19.8333 123.5,29.1667 123.5,38.5C 120.167,38.5 116.833,38.5 113.5,38.5C 113.5,29.1667 113.5,19.8333 113.5,10.5 Z"/></g>
<g><path style="opacity:0.916" fill="#010101" d="M 272.5,11.5 C 274.426,12.2423 276.259,13.2423 278,14.5C 284.644,21.7324 285.811,29.7324 281.5,38.5C 280.167,38.5 278.833,38.5 277.5,38.5C 277.666,32.8236 277.499,27.1569 277,21.5C 275.573,19.2129 273.739,18.8795 271.5,20.5C 270.504,26.4632 270.171,32.4632 270.5,38.5C 266.833,38.5 263.167,38.5 259.5,38.5C 259.5,29.1667 259.5,19.8333 259.5,10.5C 263.898,10.2941 268.232,10.6274 272.5,11.5 Z"/></g>
<g><path style="opacity:0.604" fill="#212120" d="M 282.5,10.5 C 284.167,11.8333 285.833,13.1667 287.5,14.5C 287.5,15.5 287.5,16.5 287.5,17.5C 285.453,15.4504 283.786,13.117 282.5,10.5 Z"/></g>
<g><path style="opacity:0.981" fill="#111111" d="M 283.5,17.5 C 285.141,18.147 286.474,19.147 287.5,20.5C 287.5,26.5 287.5,32.5 287.5,38.5C 286.167,38.5 284.833,38.5 283.5,38.5C 284.804,35.2883 285.804,31.955 286.5,28.5C 285.875,24.6983 284.875,21.0316 283.5,17.5 Z"/></g>
</svg>
